# xmcd
#
# Track frame offsets: 
#        150
#        18532
#        39735
#        58784
#        77923
#        98676
#        120970
#        143313
#        159419
#        176954
#        193569
#        211446
#        229998
#        246836
#        264949
#        285853
#        301028
#
# Disc length: 4225 seconds
#
# Revision: 4
# Processed by: cddbd v1.5.2PL0 Copyright (c) Steve Scherf et al.
# Submitted via: ExactAudioCopy v1.0b3
#
DISCID=dc107f11
DTITLE=Tim McGraw - 35 Biggest Hits [CD2]
DYEAR=2015
DGENRE=Country
TTITLE0=The Cowboy in Me
TTITLE1=Red Ragtop
TTITLE2=She's My Kind of Rain
TTITLE3=Real Good Man
TTITLE4=Watch the Wind Blow By
TTITLE5=Live like You Were Dying
TTITLE6=Back When
TTITLE7=My Old Friend
TTITLE8=When the Stars Go Blue
TTITLE9=My Little Girl
TTITLE10=Last Dollar (Fly Away)
TTITLE11=If You're Reading This
TTITLE12=Let It Go
TTITLE13=Southern Voice
TTITLE14=Felt Good on My Lips
TTITLE15=Better Than I Used to Be
TTITLE16=Just When I Needed You Most (Live) (Bonus Track)
EXTD=
EXTT0=
EXTT1=
EXTT2=
EXTT3=
EXTT4=
EXTT5=
EXTT6=
EXTT7=
EXTT8=
EXTT9=
EXTT10=
EXTT11=
EXTT12=
EXTT13=
EXTT14=
EXTT15=
EXTT16=
PLAYORDER=
